<?xml version="1.0" standalone="no"?>
<!DOCTYPE svg PUBLIC "-//W3C//DTD SVG 20010904//EN"
 "http://www.w3.org/TR/2001/REC-SVG-20010904/DTD/svg10.dtd">
<svg version="1.0" xmlns="http://www.w3.org/2000/svg"
 width="1280.000000pt" height="1024.000000pt" viewBox="0 0 1280.000000 1024.000000"
 preserveAspectRatio="xMidYMid meet">

<g transform="translate(0.000000,1024.000000) scale(0.100000,-0.100000)"
fill="#000000" stroke="none">
<path d="M5028 7816 c-162 -58 -157 -200 15 -429 74 -99 304 -336 480 -495
l128 -115 -98 -58 -98 -58 -95 -1 c-164 0 -202 -24 -240 -148 -45 -146 -36
-229 40 -354 l41 -68 -36 -51 c-49 -72 -58 -114 -53 -261 2 -71 3 -128 3 -128
-1 0 -46 17 -101 39 -54 21 -110 39 -124 39 -14 0 -150 35 -303 77 -163 45
-285 74 -297 70 -26 -8 -50 -55 -53 -103 -2 -34 1 -39 35 -55 20 -10 153 -43
295 -74 142 -31 266 -63 275 -70 9 -8 85 -25 172 -39 177 -27 204 -33 211 -45
3 -4 -5 -30 -18 -56 -48 -93 -108 -268 -113 -328 -8 -85 -15 -102 -72 -178
-64 -84 -80 -131 -63 -187 17 -58 47 -74 119 -65 l59 7 26 -45 c15 -24 42 -58
62 -76 48 -42 84 -41 342 10 265 53 396 60 530 30 121 -27 133 -27 239 10 124
44 176 43 282 -5 47 -21 91 -35 101 -31 36 11 63 55 138 221 72 161 106 224
121 224 4 -1 21 -20 39 -44 76 -103 280 -218 429 -241 53 -8 172 17 232 50 78
43 117 114 156 288 l22 98 66 -50 c218 -165 429 -263 531 -246 87 15 128 98
108 220 -25 152 -154 355 -393 617 l-80 87 -43 258 c-52 310 -118 630 -151
733 -41 130 -105 185 -269 229 -247 68 -343 134 -550 381 -46 54 -101 107
-129 125 -43 26 -58 30 -120 30 -92 -1 -237 -50 -441 -150 -82 -40 -182 -83
-220 -95 l-70 -22 -245 167 c-392 267 -489 323 -618 356 -87 22 -152 24 -204
5z m290 -71 c102 -49 223 -127 582 -374 173 -120 432 -298 575 -396 509 -349
937 -674 1365 -1035 317 -268 531 -509 636 -718 43 -84 46 -129 4 -53 -89 162
-296 376 -625 648 -137 113 -179 145 -695 528 -206 153 -611 455 -900 670
-611 456 -739 550 -912 670 -71 48 -128 89 -128 91 0 11 33 0 98 -31z m-100
-85 c49 -22 54 -32 13 -24 -56 12 -121 -47 -121 -109 0 -45 53 -103 428 -471
191 -188 212 -211 196 -223 -15 -11 -31 1 -134 97 -65 60 -187 185 -272 277
-254 275 -268 294 -268 362 0 96 65 133 158 91z m1725 -196 c22 -16 65 -58 95
-94 172 -206 222 -249 376 -320 44 -21 135 -57 201 -80 75 -25 130 -51 147
-67 65 -62 147 -346 208 -717 11 -66 17 -122 15 -125 -3 -2 -21 11 -40 29 -23
23 -35 43 -35 61 0 167 -101 579 -142 579 -12 0 -8 -30 21 -170 10 -52 22
-151 26 -220 l7 -125 -26 24 c-21 20 -26 34 -26 71 0 61 -18 158 -37 193 -24
48 -38 28 -40 -62 -1 -46 -4 -85 -7 -88 -2 -3 -80 65 -173 150 -92 85 -211
192 -263 237 -138 119 -465 362 -658 491 -92 61 -171 115 -176 120 -10 9 120
72 235 114 138 49 220 49 292 -1z m-261 -819 c98 -71 176 -130 175 -132 -2 -1
-56 13 -121 32 -101 29 -238 58 -376 80 -27 4 -38 13 -50 38 -13 28 -21 33
-64 39 -70 10 -447 14 -472 5 -11 -4 -27 -20 -35 -35 -14 -27 -14 -27 -99 -22
l-85 5 125 76 c69 42 201 124 294 182 l168 107 182 -123 c99 -68 261 -181 358
-252z m-452 -10 c10 -12 7 -15 -14 -21 -27 -7 -111 -90 -141 -141 -11 -18 -22
-33 -25 -33 -4 0 -19 14 -36 31 l-29 31 28 22 c15 12 27 27 27 34 0 21 -36 13
-75 -18 -22 -18 -50 -30 -67 -30 -27 0 -29 2 -23 34 6 28 3 36 -20 54 -14 11
-31 22 -37 24 -6 2 -8 10 -4 16 5 9 63 12 205 12 162 0 201 -3 211 -15z m-488
-66 c44 -11 53 -31 43 -105 -5 -44 -12 -57 -36 -74 -33 -24 -34 -22 -15 65 22
101 33 97 -239 93 l-235 -3 -27 -28 c-24 -24 -28 -36 -31 -101 -4 -63 1 -89
28 -170 52 -158 23 -141 -36 21 -24 65 -24 196 -1 240 21 39 56 64 105 74 47
10 395 0 444 -12z m645 -19 c177 -24 467 -94 500 -122 21 -17 15 -53 -23 -156
-70 -188 -121 -263 -185 -276 -93 -18 -331 4 -395 37 -18 9 -61 60 -105 124
-94 135 -102 149 -94 176 10 31 93 167 123 200 29 31 54 33 179 17z m-933 -62
c-11 -13 -58 -66 -104 -118 -46 -52 -86 -97 -87 -99 -5 -7 -10 2 -17 30 -5 23
5 40 75 118 73 83 83 91 116 91 l36 0 -19 -22z m194 5 c-144 -165 -293 -330
-304 -336 -8 -5 -21 -7 -29 -5 -8 2 47 72 143 180 121 137 163 178 181 178 22
0 23 -1 9 -17z m299 -51 c7 -5 31 -50 53 -101 60 -142 85 -177 197 -288 95
-95 101 -103 75 -103 -15 0 -60 16 -101 35 -40 19 -79 35 -88 35 -30 0 -6 -36
49 -74 74 -51 137 -58 228 -27 61 21 63 21 181 5 146 -21 204 -12 266 41 73
63 155 251 169 390 4 36 9 65 11 65 14 0 83 -64 83 -77 0 -9 -9 -31 -21 -50
-20 -32 -20 -40 -11 -176 5 -78 14 -153 21 -165 7 -13 47 -39 97 -63 63 -30
106 -60 159 -110 40 -38 77 -69 84 -69 7 0 11 20 11 53 0 63 -3 67 -152 176
-54 40 -102 79 -107 89 -14 27 -21 283 -7 275 20 -12 266 -203 487 -379 l216
-171 -13 -94 c-7 -52 -17 -188 -23 -304 -20 -426 -96 -555 -326 -555 -170 0
-329 89 -441 246 -25 35 -50 64 -55 64 -27 0 -70 -69 -160 -256 -54 -112 -106
-207 -114 -211 -9 -3 -57 6 -108 21 -119 33 -163 33 -272 -4 -49 -16 -99 -30
-111 -30 -12 0 -71 10 -130 21 -144 28 -260 23 -512 -25 -290 -54 -312 -51
-383 59 -44 68 -53 73 -109 53 -29 -9 -35 -9 -47 7 -27 38 -8 112 48 186 33
43 36 54 42 133 4 63 13 103 32 143 25 55 26 56 41 35 22 -32 54 -27 103 14
23 20 43 35 44 33 1 -2 9 -17 17 -34 22 -43 55 -44 96 -4 19 18 36 31 38 28 2
-2 11 -20 19 -40 20 -50 49 -55 92 -18 l33 29 19 -37 c22 -47 47 -53 82 -19
l27 26 22 -30 c26 -35 61 -39 87 -10 18 20 18 20 36 -19 28 -64 66 -73 116
-28 l23 20 6 -31 c3 -17 15 -39 25 -48 17 -15 24 -16 57 -5 32 11 43 10 82 -8
31 -14 66 -21 112 -21 56 0 71 4 96 25 33 27 85 123 128 234 22 57 37 80 65
101 56 40 305 165 378 190 83 28 199 30 302 5 75 -18 109 -16 109 5 0 31 -169
64 -296 58 -77 -4 -104 -10 -204 -51 -130 -53 -159 -56 -262 -27 -85 23 -178
26 -216 6 -29 -15 -101 -89 -139 -141 l-21 -30 -24 23 c-14 12 -37 22 -52 22
-18 0 -38 11 -57 31 -16 17 -35 29 -42 26 -52 -19 -57 -19 -57 6 0 13 -10 37
-22 52 -19 25 -25 27 -69 21 -42 -6 -48 -4 -54 13 -15 49 -89 76 -136 51 -16
-9 -25 -5 -53 25 -37 39 -53 42 -98 19 -29 -15 -31 -15 -57 10 -34 32 -78 34
-116 5 l-27 -22 -25 26 -26 25 73 70 c51 47 71 74 67 85 -4 10 -13 14 -27 10
-22 -6 -179 -154 -239 -226 -35 -43 -55 -44 -83 -6 -18 23 -18 33 -9 125 22
209 76 279 247 319 38 8 88 23 112 32 23 9 45 13 48 10 4 -3 1 -35 -5 -70 -6
-35 -11 -85 -11 -110 0 -40 3 -47 20 -47 22 0 23 3 45 145 23 151 38 173 183
277 124 88 136 94 159 80z m-1291 -705 l201 -52 -9 -27 c-6 -16 -16 -28 -23
-28 -15 0 -318 65 -377 81 -23 6 -38 16 -38 25 0 23 19 54 33 54 7 -1 102 -24
213 -53z m724 -56 c15 -29 12 -87 -5 -105 -11 -11 -23 -12 -45 -6 -60 17 -64
34 -25 93 28 41 58 48 75 18z m151 -8 c12 -32 -5 -115 -26 -133 -8 -6 -26 -10
-42 -8 -23 2 -29 8 -31 35 -5 51 44 131 81 133 4 0 12 -12 18 -27z m156 -29
c10 -26 -17 -123 -37 -134 -19 -10 -63 0 -73 17 -7 11 28 91 50 115 20 22 52
23 60 2z m159 -49 c8 -32 -3 -93 -22 -122 -18 -29 -64 -30 -89 -3 -16 17 -17
25 -6 59 12 43 61 91 92 91 12 0 21 -9 25 -25z m144 -95 c0 -64 -22 -120 -48
-120 -10 0 -31 13 -47 30 -26 27 -27 31 -15 60 14 35 66 80 93 80 14 0 17 -9
17 -50z m-496 -36 c20 -20 20 -54 1 -101 -19 -44 -62 -103 -76 -103 -6 0 -17
17 -25 37 -20 47 -7 98 37 148 35 40 41 41 63 19z m-154 -14 c13 -24 -19 -122
-52 -157 -25 -26 -60 -30 -78 -8 -30 36 46 185 95 185 14 0 29 -8 35 -20z
m320 -15 c16 -19 1 -78 -36 -141 -36 -64 -63 -65 -77 -3 -9 37 9 93 42 128 32
34 52 39 71 16z m460 -10 c0 -14 -7 -41 -14 -60 -11 -26 -21 -35 -39 -35 -52
0 -57 56 -8 97 36 31 61 30 61 -2z m118 -48 c4 -50 -22 -97 -54 -97 -32 0 -40
22 -25 70 11 39 46 73 66 67 5 -2 11 -20 13 -40z m-450 11 c4 -21 -45 -133
-64 -149 -11 -9 -18 -8 -29 1 -23 19 -18 60 16 118 24 42 35 53 52 50 12 -2
23 -11 25 -20z m132 -68 c0 -28 -52 -110 -70 -110 -11 0 -30 42 -30 67 0 8 15
30 34 49 39 39 66 37 66 -6z m137 -47 c10 -25 -38 -107 -64 -111 -21 -3 -23 1
-23 39 0 30 6 50 22 66 25 27 56 30 65 6z m1958 -97 c292 -196 409 -223 434
-104 l7 33 22 -35 c32 -50 27 -109 -10 -130 -25 -13 -34 -13 -95 3 -92 23
-308 133 -420 214 -74 52 -93 71 -93 90 0 32 0 32 155 -71z m-1820 44 c20 -33
-45 -120 -80 -106 -23 8 -19 66 7 93 22 24 62 31 73 13z"/>
<path d="M6685 7440 c-60 -16 -113 -30 -117 -30 -18 0 -6 -41 16 -55 22 -15
29 -14 91 10 82 30 126 32 150 5 19 -21 60 -27 70 -10 9 14 -24 78 -49 95 -27
19 -31 19 -161 -15z"/>
<path d="M6946 7314 c-46 -46 73 -241 240 -393 78 -72 131 -95 196 -87 57 8
158 43 158 56 0 4 -33 26 -72 48 -157 84 -303 188 -363 257 -129 146 -131 148
-159 119z"/>
<path d="M6253 6509 c-26 -9 -143 -155 -143 -177 0 -28 163 -255 198 -275 25
-15 64 -20 179 -27 81 -4 154 -6 162 -3 64 20 111 82 173 226 46 107 48 131 9
151 -36 19 -212 59 -371 85 -170 27 -185 28 -207 20z m276 -65 c16 -5 3 -15
-193 -141 l-119 -77 -19 24 -19 24 141 91 c141 92 153 97 209 79z m226 -43
c17 -7 -13 -30 -172 -134 -106 -69 -210 -136 -232 -149 -40 -23 -40 -23 -55
-3 -9 11 -14 24 -13 28 1 4 90 66 197 137 197 129 223 141 275 121z m52 -94
c-25 -38 -355 -247 -391 -247 -23 0 -27 3 -18 12 27 27 417 274 420 266 2 -5
-3 -19 -11 -31z"/>
<path d="M5677 6220 c-16 -19 -33 -61 -46 -118 -26 -111 -28 -180 -4 -189 28
-11 50 31 69 134 10 54 19 91 21 83 1 -8 9 -59 17 -114 9 -61 20 -105 30 -115
20 -19 95 -19 107 0 22 35 -6 161 -62 271 -43 85 -88 101 -132 48z"/>
<path d="M7677 5243 c-2 -4 -8 -41 -11 -81 -13 -137 -48 -217 -109 -249 -40
-21 -146 -21 -203 0 -53 19 -80 6 -46 -22 50 -42 216 -55 289 -22 47 22 98 85
112 140 17 68 22 184 8 210 -13 26 -32 37 -40 24z"/>
<path d="M6771 5024 c-6 -15 -26 -63 -43 -108 -17 -44 -36 -87 -43 -95 -11
-11 -51 -14 -172 -15 -144 -1 -162 -3 -200 -24 -24 -12 -43 -30 -43 -38 0 -18
7 -17 157 7 67 11 98 11 179 -1 96 -13 98 -13 115 9 10 12 27 49 38 84 12 34
32 89 45 122 18 43 22 63 14 72 -16 20 -34 15 -47 -13z"/>
<path d="M5218 4923 c-14 -16 -36 -48 -48 -72 -23 -46 -17 -66 16 -59 16 3 31
25 80 116 7 14 -2 42 -14 42 -4 0 -20 -12 -34 -27z"/>
<path d="M4765 7116 c-133 -65 -202 -152 -212 -266 -7 -68 10 -108 82 -196 58
-72 64 -101 31 -169 -20 -39 -59 -84 -152 -171 -141 -132 -167 -172 -167 -254
0 -57 18 -130 33 -130 4 0 11 15 14 33 10 52 29 72 169 166 219 148 315 268
325 404 6 74 -5 98 -100 225 -43 57 -81 115 -84 129 -12 44 14 98 86 182 39
44 65 81 58 81 -7 0 -44 -16 -83 -34z m-93 -136 c-23 -47 -24 -53 -11 -97 8
-29 40 -84 86 -145 111 -147 125 -196 78 -288 -49 -96 -117 -164 -258 -256
-72 -47 -143 -96 -156 -108 l-24 -21 7 29 c11 47 61 107 172 211 133 124 158
164 152 248 -3 56 -9 71 -51 130 -85 123 -93 155 -56 237 15 34 74 110 84 110
1 0 -9 -23 -23 -50z"/>
<path d="M2427 3937 c-21 -67 -21 -67 3 -67 20 0 20 -7 20 -290 l0 -290 80 0
80 0 0 350 0 350 -83 0 -83 0 -17 -53z"/>
<path d="M2906 3978 c-3 -7 -11 -34 -20 -60 -14 -46 -14 -48 5 -48 18 0 19
-10 19 -290 l0 -290 80 0 80 0 0 190 c0 105 4 190 9 190 4 0 53 -84 107 -187
l99 -188 83 -3 82 -3 0 351 0 350 -80 0 -80 0 0 -191 c0 -119 -4 -188 -10
-184 -5 3 -52 89 -105 190 l-96 185 -85 0 c-59 0 -86 -4 -88 -12z"/>
<path d="M3735 3938 c-19 -64 -19 -68 0 -68 13 0 15 -39 15 -291 l0 -291 153
3 c149 4 154 5 219 37 121 59 171 151 172 312 1 130 -20 187 -93 260 -78 77
-121 90 -307 90 l-143 0 -16 -52z m313 -88 c51 -31 74 -93 74 -200 0 -48 -5
-105 -12 -127 -23 -71 -83 -113 -162 -113 l-28 0 0 230 0 230 48 0 c30 0 59
-8 80 -20z"/>
<path d="M4596 3978 c-3 -7 -11 -34 -20 -60 -14 -46 -14 -48 5 -48 18 0 19
-10 19 -290 l0 -290 80 0 80 0 0 350 0 350 -80 0 c-56 0 -82 -4 -84 -12z"/>
<path d="M5051 3948 c-7 -24 -15 -51 -17 -60 -4 -13 0 -18 15 -18 21 0 21 -4
21 -290 l0 -290 215 0 215 0 0 60 0 60 -135 0 -135 0 0 85 0 85 85 0 85 0 0
60 0 60 -85 0 -85 0 0 85 0 84 117 3 116 3 12 35 c7 19 15 45 19 58 l7 22
-219 0 -219 0 -12 -42z"/>
<path d="M6187 3983 c-3 -5 -12 -32 -20 -60 -15 -51 -15 -53 4 -53 18 0 19 -9
19 -290 l0 -290 80 0 80 0 0 99 0 98 46 7 c26 3 61 6 79 6 52 0 133 29 169 61
47 41 67 97 67 186 0 126 -48 194 -160 227 -57 17 -355 24 -364 9z m329 -146
c46 -53 27 -196 -28 -211 -13 -3 -49 -6 -80 -6 l-58 0 0 126 0 126 71 -4 c63
-3 74 -7 95 -31z"/>
<path d="M7001 3946 c-6 -24 -13 -51 -17 -60 -4 -12 0 -16 15 -16 21 0 21 -2
21 -290 l0 -290 80 0 80 0 0 350 0 350 -84 0 -84 0 -11 -44z"/>
<path d="M7466 3944 c-20 -59 -20 -74 -1 -74 13 0 15 -39 15 -290 l0 -290 85
0 85 0 0 100 c0 100 0 100 25 100 20 0 37 -18 91 -100 l67 -100 84 0 c65 0 82
3 77 13 -5 6 -39 57 -76 112 l-69 99 34 18 c89 45 130 145 109 267 -13 77 -48
125 -118 161 -45 23 -60 25 -220 28 l-171 4 -17 -48z m313 -89 c36 -18 41 -31
41 -116 0 -61 -3 -73 -25 -94 -20 -21 -34 -25 -85 -25 l-60 0 0 125 0 125 50
0 c28 0 64 -7 79 -15z"/>
<path d="M8446 3943 c-20 -59 -20 -73 0 -73 10 0 14 -5 10 -15 -3 -9 -45 -136
-92 -283 -48 -147 -89 -271 -91 -275 -3 -4 32 -7 78 -5 l82 3 20 58 19 57 118
0 118 0 19 -57 20 -58 82 -3 c46 -2 81 1 78 5 -3 4 -55 162 -116 351 l-112
342 -108 0 -109 0 -16 -47z m187 -290 l35 -113 -78 0 -78 0 24 78 c13 42 30
96 36 119 7 24 15 40 19 35 4 -4 23 -58 42 -119z"/>
<path d="M9116 3978 c-3 -7 -11 -34 -20 -60 l-15 -48 85 0 84 0 0 -290 0 -290
80 0 80 0 0 290 0 289 82 3 81 3 12 35 c7 19 15 45 19 58 l7 22 -246 0 c-188
0 -247 -3 -249 -12z"/>
<path d="M9901 3948 c-7 -24 -15 -51 -17 -60 -4 -13 0 -18 15 -18 21 0 21 -4
21 -290 l0 -290 215 0 215 0 0 60 0 60 -135 0 -135 0 0 85 0 85 85 0 85 0 0
60 0 60 -85 0 -85 0 0 85 0 84 117 3 116 3 12 35 c7 19 15 45 19 58 l7 22
-219 0 -219 0 -12 -42z"/>
<path d="M2350 2355 c0 -8 5 -15 10 -15 6 0 10 -49 10 -126 l0 -126 65 4 c50
3 71 9 87 25 28 29 28 76 -1 107 -19 20 -20 24 -6 36 22 19 18 58 -10 85 -21
22 -33 25 -90 25 -51 0 -65 -3 -65 -15z m139 -37 c16 -43 -5 -68 -56 -68 -32
0 -33 1 -33 45 l0 45 40 0 c33 0 42 -4 49 -22z m-1 -104 c28 -20 30 -69 3 -84
-11 -5 -36 -10 -55 -10 l-36 0 0 55 0 55 33 0 c18 0 43 -7 55 -16z"/>
<path d="M2580 2355 c0 -8 6 -15 13 -15 7 0 30 -29 50 -63 32 -55 37 -72 37
-125 0 -48 3 -62 15 -62 12 0 15 14 15 63 0 42 6 72 18 92 71 119 74 125 55
125 -12 0 -30 -21 -51 -60 -19 -33 -35 -60 -37 -60 -2 0 -19 27 -37 60 -25 45
-38 60 -55 60 -14 0 -23 -6 -23 -15z"/>
<path d="M2990 2355 c0 -8 5 -15 10 -15 6 0 10 -48 10 -125 0 -104 2 -125 15
-125 13 0 15 22 15 140 l0 140 -25 0 c-16 0 -25 -6 -25 -15z"/>
<path d="M3120 2355 c0 -8 5 -15 10 -15 6 0 10 -48 10 -125 0 -104 2 -125 15
-125 12 0 15 18 15 105 0 58 3 105 8 105 4 0 31 -47 60 -105 40 -81 56 -105
72 -105 19 0 20 7 20 140 0 116 -2 140 -15 140 -11 0 -15 -21 -17 -107 l-3
-108 -58 108 c-54 98 -61 107 -88 107 -19 0 -29 -5 -29 -15z"/>
<path d="M3415 2359 c-5 -7 -4 -14 3 -17 8 -2 12 -42 12 -129 l0 -126 56 7
c31 3 69 13 86 22 73 38 76 182 4 229 -34 23 -150 33 -161 14z m129 -30 c36
-17 59 -71 51 -119 -8 -49 -42 -80 -94 -87 l-41 -6 0 112 0 111 30 0 c16 0 40
-5 54 -11z"/>
<path d="M3696 2355 c-3 -8 -1 -15 4 -15 6 0 10 -51 10 -125 0 -104 2 -125 15
-125 13 0 15 22 15 140 0 131 -1 140 -19 140 -10 0 -21 -7 -25 -15z"/>
<path d="M3826 2355 c-3 -8 -1 -15 4 -15 6 0 10 -51 10 -125 l0 -125 80 0 c64
0 80 3 80 15 0 12 -14 15 -65 15 l-65 0 0 50 0 50 50 0 c28 0 50 5 50 10 0 6
-22 10 -50 10 l-50 0 0 50 0 49 62 3 c38 2 63 8 66 16 6 19 -164 17 -172 -3z"/>
<path d="M4204 2348 c3 -13 6 -76 6 -140 0 -111 1 -118 20 -118 18 0 20 7 20
65 l0 65 65 0 65 0 0 -65 c0 -51 3 -65 15 -65 13 0 15 22 15 140 0 118 -2 140
-15 140 -12 0 -15 -14 -15 -65 l0 -65 -65 0 -65 0 0 65 c0 63 -1 65 -26 65
-22 0 -25 -3 -20 -22z"/>
<path d="M4544 2359 c-3 -6 -2 -14 4 -18 8 -5 -1 -46 -27 -129 -36 -111 -37
-122 -20 -122 13 0 20 10 25 35 l6 35 58 0 58 0 6 -35 c5 -25 12 -35 26 -35
16 0 18 4 10 28 -5 15 -25 78 -45 140 -35 109 -37 112 -65 112 -16 0 -32 -5
-36 -11z m69 -102 c9 -30 17 -57 17 -60 0 -4 -18 -7 -40 -7 -22 0 -40 3 -40 7
0 16 34 113 40 113 3 0 14 -24 23 -53z"/>
<path d="M4830 2358 c-65 -35 -91 -139 -50 -205 21 -34 66 -63 100 -63 31 0
80 28 80 46 0 13 -3 13 -30 -1 -59 -31 -110 -11 -130 50 -32 97 42 187 120
145 22 -12 39 5 22 22 -16 16 -85 20 -112 6z"/>
<path d="M5044 2358 c-4 -6 -2 -14 4 -16 8 -2 12 -41 12 -128 0 -104 2 -124
15 -124 12 0 15 13 15 60 0 33 4 60 8 60 4 0 34 -27 67 -60 33 -34 68 -60 79
-60 16 0 4 16 -48 69 l-69 70 50 58 c64 75 69 83 46 83 -10 0 -40 -27 -66 -60
-27 -33 -53 -60 -58 -60 -5 0 -9 27 -9 60 0 53 -2 60 -19 60 -11 0 -23 -5 -27
-12z"/>
<path d="M5330 2355 c0 -8 5 -15 10 -15 6 0 10 -48 10 -125 l0 -126 77 3 c50
2 78 7 81 16 3 9 -14 12 -62 12 l-66 0 0 50 0 50 50 0 c28 0 50 5 50 10 0 6
-22 10 -50 10 l-50 0 0 50 0 50 60 0 c47 0 60 3 60 15 0 12 -16 15 -85 15 -69
0 -85 -3 -85 -15z"/>
<path d="M5594 2348 c3 -13 6 -76 6 -140 0 -111 1 -118 20 -118 18 0 20 7 20
60 0 57 1 60 25 60 20 0 30 -11 55 -60 17 -33 37 -60 45 -60 20 0 19 1 -11 63
l-26 54 26 26 c28 28 32 52 15 90 -15 34 -49 47 -121 47 -58 0 -60 -1 -54 -22z
m135 -22 c7 -8 11 -30 9 -48 -3 -32 -5 -33 -50 -36 l-48 -3 0 50 0 51 39 0
c21 0 44 -6 50 -14z"/>
<path d="M5886 2349 c-31 -24 -35 -68 -8 -92 9 -8 37 -26 62 -39 55 -28 64
-59 25 -84 -23 -15 -32 -16 -59 -5 -45 17 -48 17 -53 3 -7 -18 63 -45 97 -37
29 6 66 40 71 65 6 32 -13 58 -61 80 -61 28 -74 42 -65 69 8 26 46 37 73 22
28 -15 42 7 17 26 -27 19 -68 16 -99 -8z"/>
<path d="M6464 2348 c3 -13 6 -76 6 -140 0 -111 1 -118 20 -118 18 0 20 7 20
60 l0 60 50 0 c38 0 50 4 50 15 0 11 -12 15 -50 15 l-50 0 0 50 0 50 60 0 c47
0 60 3 60 15 0 12 -16 15 -86 15 -85 0 -86 0 -80 -22z"/>
<path d="M6753 2350 c-47 -28 -65 -62 -65 -121 0 -61 21 -95 76 -123 69 -34
155 7 176 85 32 119 -87 220 -187 159z m135 -45 c32 -37 31 -113 -2 -152 -32
-37 -103 -40 -137 -6 -30 29 -38 113 -15 148 34 52 113 57 154 10z"/>
<path d="M7034 2348 c3 -13 6 -76 6 -140 0 -111 1 -118 20 -118 18 0 20 7 20
60 0 57 1 60 25 60 20 0 30 -11 55 -60 17 -33 37 -60 45 -60 20 0 19 0 -12 64
l-27 55 22 18 c12 10 25 32 28 50 5 27 1 37 -24 63 -28 27 -36 30 -97 30 -65
0 -67 -1 -61 -22z m134 -20 c7 -7 12 -24 12 -38 0 -36 -17 -50 -62 -50 l-38 0
0 50 0 50 38 0 c21 0 43 -5 50 -12z"/>
<path d="M7420 2355 c0 -8 5 -15 10 -15 6 0 10 -48 10 -125 0 -104 2 -125 15
-125 13 0 15 22 15 140 l0 140 -25 0 c-16 0 -25 -6 -25 -15z"/>
<path d="M7550 2356 c0 -9 5 -16 10 -16 6 0 10 -48 10 -125 0 -104 2 -125 15
-125 12 0 15 18 15 105 0 58 3 105 8 105 4 0 31 -47 60 -105 40 -81 56 -105
72 -105 19 0 20 7 20 140 0 116 -2 140 -15 140 -11 0 -15 -21 -17 -107 l-3
-108 -55 105 c-51 98 -57 105 -87 108 -25 2 -33 -1 -33 -12z"/>
<path d="M7846 2355 c-3 -8 -1 -15 4 -15 6 0 10 -52 10 -126 l0 -127 56 7 c31
3 69 13 85 21 89 46 74 209 -21 242 -51 18 -127 16 -134 -2z m134 -30 c55 -28
64 -129 16 -174 -13 -13 -42 -25 -65 -28 l-41 -6 0 112 0 111 30 0 c17 0 44
-7 60 -15z"/>
<path d="M8134 2348 c3 -13 6 -76 6 -140 0 -98 3 -118 15 -118 13 0 15 22 15
140 0 136 -1 140 -21 140 -17 0 -20 -4 -15 -22z"/>
<path d="M8256 2355 c-3 -8 -1 -15 4 -15 6 0 10 -51 10 -125 l0 -125 80 0 c64
0 80 3 80 15 0 12 -14 15 -65 15 l-65 0 0 50 0 50 49 0 c28 0 53 5 56 10 4 6
-15 10 -49 10 l-56 0 0 50 0 49 62 3 c38 2 63 8 66 16 6 19 -164 17 -172 -3z"/>
<path d="M8634 2348 c3 -13 6 -76 6 -140 0 -111 1 -118 20 -118 18 0 20 7 20
65 l0 65 65 0 65 0 0 -65 c0 -51 3 -65 15 -65 13 0 15 22 15 140 0 118 -2 140
-15 140 -12 0 -15 -14 -15 -65 l0 -65 -65 0 -65 0 0 65 c0 63 -1 65 -26 65
-22 0 -25 -3 -20 -22z"/>
<path d="M8975 2359 c-4 -6 -3 -14 4 -18 7 -5 -1 -45 -28 -129 -34 -108 -37
-122 -21 -122 11 0 20 12 26 33 9 31 12 32 66 35 l57 3 7 -36 c4 -25 12 -35
24 -35 17 0 17 5 -6 78 -66 213 -59 197 -92 200 -17 2 -33 -2 -37 -9z m69
-103 c9 -30 16 -57 16 -60 0 -3 -18 -6 -40 -6 -22 0 -40 3 -40 7 0 18 35 113
41 113 4 0 15 -24 23 -54z"/>
<path d="M9260 2358 c-65 -35 -91 -139 -50 -205 21 -34 66 -63 100 -63 31 0
80 28 80 46 0 13 -4 12 -31 -2 -41 -21 -94 -11 -115 21 -58 89 8 211 96 178
20 -7 32 -8 36 -1 17 28 -73 48 -116 26z"/>
<path d="M9474 2358 c-4 -6 -2 -14 4 -16 8 -2 12 -41 12 -128 0 -104 2 -124
15 -124 12 0 15 13 15 60 0 33 4 60 8 60 4 0 34 -27 67 -60 33 -34 68 -60 79
-60 16 0 4 16 -48 69 l-69 70 50 58 c64 75 69 83 46 83 -10 0 -40 -27 -66 -60
-27 -33 -53 -60 -58 -60 -5 0 -9 27 -9 60 0 53 -2 60 -19 60 -11 0 -23 -5 -27
-12z"/>
<path d="M9760 2355 c0 -8 5 -15 10 -15 6 0 10 -48 10 -125 l0 -125 80 0 c64
0 80 3 80 15 0 12 -14 15 -65 15 l-65 0 0 50 0 50 50 0 c28 0 50 5 50 10 0 6
-22 10 -50 10 l-50 0 0 50 0 50 60 0 c47 0 60 3 60 15 0 12 -16 15 -85 15 -69
0 -85 -3 -85 -15z"/>
<path d="M10024 2348 c3 -13 6 -76 6 -140 0 -111 1 -118 20 -118 18 0 20 7 20
60 0 59 1 60 28 60 24 0 31 -8 54 -60 16 -37 32 -60 42 -60 20 0 21 -2 -9 63
l-26 55 26 26 c14 14 25 33 25 43 -1 67 -38 93 -131 93 -59 0 -61 -1 -55 -22z
m142 -37 c21 -42 4 -66 -50 -69 l-46 -3 0 51 0 51 42 -3 c33 -2 45 -8 54 -27z"/>
<path d="M10316 2349 c-31 -24 -35 -68 -8 -91 9 -9 36 -25 59 -37 50 -25 57
-34 49 -66 -8 -31 -54 -42 -94 -21 -27 14 -42 13 -42 -5 0 -3 16 -15 36 -24
51 -24 110 -7 128 37 20 47 9 66 -55 98 -65 33 -73 42 -64 70 8 25 46 35 73
21 28 -15 42 7 17 26 -27 19 -68 16 -99 -8z"/>
</g>
</svg>
